<?xml version="1.0" encoding="utf-8"?>
<!-- Generator: Adobe Illustrator 22.0.1, SVG Export Plug-In . SVG Version: 6.00 Build 0)  -->
<svg version="1.1" id="Layer_1" xmlns="http://www.w3.org/2000/svg" xmlns:xlink="http://www.w3.org/1999/xlink" x="0px" y="0px"
	 viewBox="0 0 508.3 559.5" style="enable-background:new 0 0 508.3 559.5;" xml:space="preserve">
<style type="text/css">
	.st0{fill:#82878C;}
</style>
<path class="st0" d="M468,109.8L294.4,9.6c-22.1-12.8-58.4-12.8-80.5,0L40.3,109.8C18.2,122.6,0,154,0,179.5V380
	c0,25.6,18.1,56.9,40.3,69.7l173.6,100.2c22.1,12.8,58.4,12.8,80.5,0L468,449.8c22.2-12.8,40.3-44.2,40.3-69.7V179.6
	C508.3,154,490.2,122.6,468,109.8z M399.3,244.4l-195.1,0c-11,0-19.2,3.2-25.6,10c-14.2,15.1-18.2,44.4-19.3,60.7H348v-26.4h49.9
	v76.3H111.3l-1.8-23c-0.3-3.3-5.9-80.7,32.8-121.9c16.1-17.1,37.1-25.8,62.4-25.8h194.7V244.4z"/>
</svg>
