<?xml version="1.0" encoding="utf-8"?>
<!-- Generator: Adobe Illustrator 22.0.1, SVG Export Plug-In . SVG Version: 6.00 Build 0)  -->
<svg version="1.1" xmlns="http://www.w3.org/2000/svg" xmlns:xlink="http://www.w3.org/1999/xlink" x="0px" y="0px"
	 viewBox="0 0 547.2 242.6" style="enable-background:new 0 0 547.2 242.6;" xml:space="preserve">
<style type="text/css">
	.st0{fill:#82878C;}
	.st1{fill:none;}
	.st2{fill:#83878B;}
</style>
<g id="Layer_1">
</g>
<g id="Layer_2">
	<path class="st0" d="M202.9,47.6L127.7,4.2c-9.6-5.6-25.3-5.6-34.9,0L17.5,47.6C7.9,53.2,0,66.8,0,77.8v86.9
		c0,11.1,7.8,24.7,17.5,30.2l75.3,43.5c9.6,5.6,25.3,5.6,34.9,0l75.3-43.4c9.6-5.6,17.5-19.2,17.5-30.2V77.9
		C220.4,66.8,212.6,53.2,202.9,47.6z M173.2,106H88.6c-4.8,0-8.3,1.4-11.1,4.3c-6.2,6.5-7.9,19.3-8.4,26.3h81.8v-11.4h21.6v33.1
		H48.3l-0.8-10c-0.1-1.4-2.6-35,14.2-52.9c7-7.4,16.1-11.2,27.1-11.2h84.4L173.2,106L173.2,106z"/>
	<g>
		<path class="st0" d="M546.5,156.1c-1.6-3.4-4.6-5.7-8.4-6.6c-1.3-5.8-3-8.6-3.2-9.1c0.7-0.8,1.3-1.5,1.5-1.7
			c5.4-6.6,1.9-16.4-7.3-18.7c-5.1-5-9.8-7.3-13.6-9.2c-3.7-1.8-2.2-1.1-5.6-2.7c-0.9-4.5-1.2-14.9-2.7-22.2
			c-1.3-6.6-3.9-11.3-8-14.5c-1.6-3.5-3.9-7.1-6.6-9.7c12.8-19.6,16.1-38.9,6.8-49c-4.2-4.5-10.3-6.7-17.7-6.7
			c-10.4,0-23.2,4.2-36.1,12.1c0,0-8.4-6.8-8.6-6.9c-36-28.3-137.8,96.9-101.8,124.3l9.3,7.1c-5.8,16.2,2.3,35.5,19.2,41.7
			c3.7,1.4,7.8,2,12,1.8c0,0,27.3,50,84.8,50c66.5,0,83.5-65.1,83.7-65.7C543.8,170.7,549.2,162.7,546.5,156.1z M337.8,127.4
			c-7.3-12.3,5.4-37.6,14.4-52C374.5,40,411.6,12,428.5,16l4.6-1.8c0,0,12.7,10.7,12.7,10.7c8.7-5.2,19.8-10.6,30.2-11.6
			c-6.3,1.4-14,4.7-23.1,10.3c-0.2,0.1-21.6,14.5-34.6,27.5c-7.1,7-35.7,41.3-35.6,41.3c5.2-9.9,8.7-14.7,16.9-25.1
			c4.7-5.9,9.7-11.6,14.8-16.9c2.4-2.4,4.8-4.8,7.2-7c1.6-1.5,3.3-3,5-4.4c0.8-0.6,1.5-1.3,2.3-1.9l0,0L412,23.1l0.9,6.2L425,40
			c0,0-10.8,7.2-16.1,11.8c-21.5,18.3-42.5,46.4-50.4,73.8l0.4,0c-3.9,2.2-7.8,5.6-11.2,10.3C347.7,135.9,339,129.5,337.8,127.4z
			 M373.2,178.9c-12.9,0-23.3-11-23.3-24.5c0-13.5,10.4-24.5,23.3-24.5c3.3,0,6.5,0.7,9.4,2.1c0,0,4.9,2.5,6.3,14.3l0,0l0,0
			c1.4-3.7,2.2-6.7,2.2-6.7c1.7,5.1,2.5,10.4,2.2,15.8l0,0l0,0c1.4-1.8,2.9-5.3,2.9-5.3C398.7,165.1,387.7,178.9,373.2,178.9z
			 M401.9,92.3L401.9,92.3c0,0,10-19,32-31.6c-1.6-0.3-5.6,0.2-6.4,0.3c4-3.4,11.4-5.7,16.5-6.8c-1.5-1-5.1-1.2-6.9-1.2
			c-0.5,0-0.5,0-1.1,0c4.8-2.7,13.8-4.3,21.9-2.9c-1-1.4-3.3-2.3-5-2.8c-0.1,0-0.8-0.2-0.8-0.2s0.5-0.1,0.6-0.1
			c4.9-0.9,10.6,0.1,15.2,1.9c-0.5-1.2-1.8-2.6-2.7-3.5c-0.1-0.1-0.7-0.5-0.7-0.5c4.7,1,9.3,3,12.7,5.4c-0.5-0.9-1.6-2.4-2.4-3.2
			c4.5,1.3,9.6,4.5,11.8,9.2l0,0c0.1,0.1,0.2,0.5,0.2,0.5l0,0c-8.6-6.6-33.6-4.7-58.7,11.5C416.8,75.7,408.4,83.9,401.9,92.3z
			 M537.1,167.5c-0.3,0.6-3.5,17.7-21.5,31.8c-22.8,17.9-52.7,16.1-64,6.1c-6-5.7-8.7-13.7-8.7-13.7s-0.7,4.6-0.8,6.3
			c-4.6-7.7-4.2-17.2-4.2-17.2s-2.4,4.5-3.5,7.1c-3.4-8.5-1.6-17.3-1.6-17.3l-2.6,4c0,0-1.2-9.7,1.8-17.7
			c3.3-8.6,9.6-14.8,10.8-15.6c-4.8-1.5-10.3-5.9-10.3-5.9c0,0,2.2,0.1,3.7-0.2c0,0-9.7-7-11.4-17.6c1.4,1.7,4.4,3.7,4.4,3.7
			c-1-2.8-1.5-9-0.6-15.1v0c1.8-11.6,11.4-19.2,22.3-19.1c11.6,0.1,19.3,2.5,29-6.4c2.1-1.9,3.7-3.5,6.6-4.2
			c0.3-0.1,1.1-0.4,2.6-0.4c1.6,0,3.1,0.4,4.5,1.2c5.3,3.1,6.4,11.3,7,17.3c2.1,22.2,1.2,18.3,10.2,22.8c4.3,2.2,9.1,4.3,14.6,10.1
			c0,0,0,0.1,0,0.1s0.1,0,0.1,0c4.6,0.1,7,3.8,4.9,6.4c-15.5,18.5-37.2,27.4-61.4,28.2c-1,0-3.2,0.1-3.3,0.1
			c-9.8,0.3-12.9,12.9-6.8,20.5c3.9,4.8,11.3,6.4,17.4,6.4l0.1,0c26.4,0.5,53-18.2,57.5-28.5c0-0.1,0.3-0.7,0.3-0.7
			c-1.1,1.2-26.8,25.5-58.1,24.6c0,0-3.4-0.1-6.6-0.8c-4.2-1-7.5-2.9-8.7-7.1c2.6,0.5,5.9,0.8,9.7,0.8c22.6,0,38.8-10.3,37.1-10.4
			c-0.1,0-0.1,0-0.2,0c-2.6,0.6-29.8,11.1-46.9,5.7c0-0.5,0.1-1,0.2-1.5c1.5-5.1,4.2-4.4,8.6-4.6l0,0c15.6-0.5,28.3-4.5,37.7-9
			c10.1-4.8,17.8-11,20.6-14.1c3.6,6,3.6,13.8,3.6,13.8s1.4-0.5,3.3-0.5C540.3,156.9,541.6,162.1,537.1,167.5z M460.5,174.5
			C460.5,174.5,460.5,174.4,460.5,174.5C460.5,174.4,460.5,174.5,460.5,174.5z M460.4,174.4c0-0.1,0-0.1,0-0.2c0-0.3,0-0.7,0-1
			c0,0.4,0,0.7,0,1C460.4,174.3,460.4,174.3,460.4,174.4z M460.5,175.1C460.5,175.1,460.5,175.2,460.5,175.1
			C460.5,175.2,460.5,175.1,460.5,175.1z M460.5,175.2c0.1,0.8,0.3,1.2,0.3,1.2C460.7,176.2,460.6,175.7,460.5,175.2z"/>
		<polygon class="st0" points="427.9,24.1 431,25.1 428.5,16 427,20.5 		"/>
		<path class="st0" d="M441.8,27.4l-5.1-4.3l1.9,6.5C439.5,28.9,440.6,28.2,441.8,27.4z"/>
		<path class="st0" d="M460.4,174.2c0,0.1,0,0.1,0,0.2C460.4,174.3,460.4,174.3,460.4,174.2z"/>
		<path class="st0" d="M460.4,173.1c0,0.4,0,0.7,0,1C460.4,173.9,460.4,173.5,460.4,173.1z"/>
		<path class="st1" d="M460.4,174.4C460.4,174.4,460.4,174.5,460.4,174.4"/>
		<path class="st1" d="M460.5,175.2C460.5,175.2,460.5,175.1,460.5,175.2"/>
		<path class="st0" d="M460.8,176.4c0,0-0.2-0.4-0.3-1.2C460.6,175.7,460.7,176.2,460.8,176.4z"/>
		<path class="st0" d="M488.3,110c2.6-0.2,5.2,0.2,7.4,1.3c-0.2-6.3-3.8-13.4-6.6-12.5l0,0l0,0l0,0c-1.6,0.5-1.9,3.4-1.9,5.1
			C487.4,106.1,487.7,108,488.3,110z"/>
		<path class="st0" d="M436.5,31l-10.6-3.2l7,5.8C433.9,32.9,435.1,32,436.5,31z"/>
		<path class="st0" d="M463.3,119c2.1,0.8,3.5,1.4,3.9,1c0.2-0.2,0.1-0.8-0.4-1.5c-1.3-1.9-3.8-3.5-6-4.3c-5-1.9-10.9-0.8-15.2,2.6
			c-2.1,1.7-3.1,3.5-2.1,3.7c0.6,0.1,1.8-0.4,3.6-1.1C454,116.7,458,117,463.3,119z"/>
		<path class="st0" d="M464.1,125.3c1.3,0.1,2.2,0.2,2.4-0.2c0.4-0.8-3-3.4-7.7-2.6c-0.6,0.1-1.1,0.3-1.7,0.4
			c-0.2,0.1-0.4,0.1-0.6,0.2c-1.2,0.5-2.2,1-3.1,1.9c-1.1,1.1-1.4,2.1-1.1,2.3c0.3,0.3,1.1-0.1,2.3-0.6
			C458.6,125.2,461.4,125.1,464.1,125.3z"/>
		<path class="st0" d="M358.7,155.8L358.7,155.8L358.7,155.8L358.7,155.8z"/>
		<path class="st0" d="M381.5,146c1.2,1.7,0.8,2.7,1.3,3.2c0.2,0.2,0.4,0.2,0.7,0.1c0.7-0.3,1-1.4,1.1-2.2l0,0v0l0,0
			c0.2-1.9-0.8-3.9-2.1-5.4l0,0v0l0,0c-1.7-2-4.3-3.5-7.4-3.9c-2.7-0.4-5.4,0.1-6.2,0.3h0c-0.4,0.1-0.9,0.2-1.3,0.4
			c-7.4,2.9-10.6,10.1-9,17.2c0.4,1.7,1.2,3.7,2.4,5l0,0l0,0l0,0c1.5,1.6,3.2,1.3,2.5-0.2c-0.2-0.4-1.1-2.1-1.2-5.3
			c-0.1-3.2,0.6-6.5,2.7-9.1c1.5-1.9,3.4-2.7,3.6-2.8l0,0c0.3-0.1,0.5-0.2,0.8-0.4c0.1-0.1,0.3-0.1,0.4-0.1c0.9-0.3,0.4-0.2,1.4-0.4
			l0,0C376.2,141.5,379.9,143.7,381.5,146z"/>
		<path class="st0" d="M379.2,151.3c-0.5-0.4-0.7-0.7-0.9-1.2c-0.2-0.9-0.1-1.5,0.7-2c0.6-0.4,1.1-0.6,1.1-0.9c0-0.5-2-1-3.5,0.4
			c-1.2,1.3-1.6,3.9,0.3,6c2.1,2.3,5.4,2.8,6,5.7c0.1,0.4,0.1,0.9,0.1,1.3c0,0.5-0.2,1.3-0.2,1.3c-0.6,2.8-3.3,5.5-7.7,4.8
			c-0.8-0.1-1.3-0.2-1.5,0c-0.3,0.5,1.5,2.6,5,2.5c4.9-0.1,8.9-5.1,8-10.6C385.8,153.7,381,152.7,379.2,151.3z"/>
		<path class="st0" d="M493.1,119.6c-0.3,1.8,0.6,3.5,1.9,3.7c1.3,0.2,2.6-1.1,2.9-2.9c0.3-1.8-0.6-3.5-1.9-3.7
			C494.7,116.5,493.4,117.8,493.1,119.6z"/>
		<path class="st0" d="M483.4,126.2c1.8,1,3.9,0.7,4.6-0.6c0.7-1.3-0.2-3.2-2-4.2s-3.9-0.7-4.6,0.6
			C480.7,123.3,481.6,125.2,483.4,126.2z"/>
		<polygon class="st0" points="517.1,219.8 518.1,219.8 518.1,222.6 519.2,222.6 519.2,219.8 520.3,219.8 520.3,219 517.1,219 		"/>
		<polygon class="st0" points="522.7,221.1 522.1,219 520.6,219 520.6,222.6 521.5,222.6 521.5,220 522.3,222.6 523.1,222.6 
			523.9,220 523.9,222.6 524.8,222.6 524.8,219 523.4,219 		"/>
	</g>
	<g>
		<path class="st2" d="M284.9,140.8H274v-14.4h-13.6v-10.5H274v-14.1h10.8v14.1h13.6v10.5h-13.6V140.8z"/>
	</g>
</g>
</svg>
